<?xml version="1.0" encoding="utf-8"?>
<!-- Generator: Adobe Illustrator 16.0.0, SVG Export Plug-In . SVG Version: 6.00 Build 0)  -->
<!DOCTYPE svg PUBLIC "-//W3C//DTD SVG 1.1//EN" "http://www.w3.org/Graphics/SVG/1.1/DTD/svg11.dtd">
<svg version="1.1" id="Layer_1" xmlns="http://www.w3.org/2000/svg" xmlns:xlink="http://www.w3.org/1999/xlink" x="0px" y="0px"
	 width="16px" height="16px" viewBox="0 0 16 16" enable-background="new 0 0 16 16" xml:space="preserve">
<path fill="#999999" d="M11,1.5v1h3.5C14.776,2.5,15,2.724,15,3s-0.224,0.5-0.5,0.5h-0.538l-0.853,10.66
	C13.025,15.199,12.158,16,11.115,16h-6.23c-1.042,0-1.91-0.801-1.994-1.84L2.038,3.5H1.5C1.224,3.5,1,3.276,1,3s0.224-0.5,0.5-0.5H5
	v-1C5,0.671,5.671,0,6.5,0h3C10.328,0,11,0.671,11,1.5 M6,1.5v1h4v-1C10,1.224,9.776,1,9.5,1h-3C6.224,1,6,1.224,6,1.5 M4.5,5.029
	l0.5,8.5c0.011,0.275,0.244,0.49,0.52,0.479s0.491-0.244,0.479-0.521c0-0.006,0-0.013-0.001-0.02l-0.5-8.5
	c-0.011-0.276-0.244-0.49-0.52-0.479C4.703,4.5,4.488,4.733,4.499,5.009C4.499,5.016,4.5,5.022,4.5,5.029 M11.029,4.501
	c-0.275-0.016-0.512,0.194-0.527,0.47l-0.5,8.5c-0.01,0.276,0.207,0.508,0.483,0.517c0.267,0.009,0.493-0.192,0.515-0.458l0.5-8.5
	C11.516,4.753,11.306,4.517,11.029,4.501 M8,4.5C7.724,4.5,7.5,4.724,7.5,5v8.5C7.5,13.776,7.724,14,8,14s0.5-0.224,0.5-0.5V5
	C8.5,4.724,8.276,4.5,8,4.5"/>
</svg>
